<svg id="Layer_1" data-name="Layer 1" xmlns="http://www.w3.org/2000/svg" viewBox="0 0 26 26"><title>facebook</title><path d="M26,4.19V21.8a3,3,0,0,0-.1.32,4.83,4.83,0,0,1-4.63,3.81q-8.22,0-16.43,0A4.77,4.77,0,0,1,.07,21.21Q0,13,.07,4.78A4.79,4.79,0,0,1,3.39.29L4.2.05H21.81a3,3,0,0,0,.32.1,4.87,4.87,0,0,1,3.58,3.24C25.8,3.65,25.87,3.92,26,4.19ZM12.42,11v3H14v8.91H18V14h2.4l.34-3H18.06c0-.11,0-.18,0-.24,0-.52,0-1,0-1.57,0-.89.25-1.1,1.17-1.12H21V4.94c-1.52.09-3,.08-4.49.29a2.72,2.72,0,0,0-2.35,2.39A11.39,11.39,0,0,0,14,9.48c0,.48,0,1,0,1.49Z"/></svg>