<svg id="Layer_1" data-name="Layer 1" xmlns="http://www.w3.org/2000/svg" viewBox="0 0 26 26"><title>linkedin</title><path d="M13,25.85c-3.27,0-6.54,0-9.81,0a3,3,0,0,1-3.1-3.15V3.23a3,3,0,0,1,3-3.07q9.92,0,19.82,0a3,3,0,0,1,2.93,2.95q0,9.89,0,19.77a3,3,0,0,1-3,3c-3.28,0-6.57,0-9.85,0Zm8.44-4.34a.31.31,0,0,0,.05-.13c0-2.63,0-5.26-.05-7.88a3.62,3.62,0,0,0-1.85-3.13,4.37,4.37,0,0,0-5.25.79c-.1.12-.21.23-.42.45V10.19H10.62V21.51H14v-.92c0-1.88,0-3.77.07-5.66A2,2,0,0,1,16.16,13,1.91,1.91,0,0,1,18,15c0,2,0,4.08,0,6.12a2.85,2.85,0,0,0,0,.4ZM4.84,10.17V21.51h3.4V10.17ZM4.51,6.54a2,2,0,0,0,2,2.09,2.06,2.06,0,0,0,2-2.07A2,2,0,0,0,6.47,4.49,2,2,0,0,0,4.51,6.54Z"/></svg>