<svg id="Layer_1" data-name="Layer 1" xmlns="http://www.w3.org/2000/svg" viewBox="0 0 26 26"><title>twitter</title><path d="M0,22.4V3.68c0-.09.07-.18.09-.27a4.35,4.35,0,0,1,3-3.19L3.67,0H22.39c.11,0,.23.1.34.13A4.41,4.41,0,0,1,26,4.36c0,5.83,0,11.66,0,17.48A4.23,4.23,0,0,1,21.84,26H4.31A4.11,4.11,0,0,1,.46,23.53,8.5,8.5,0,0,1,0,22.4ZM3.45,10.58a4.61,4.61,0,0,0,3.26,4.27H5A4.32,4.32,0,0,0,6.46,17a4.56,4.56,0,0,0,2.47.89,8.69,8.69,0,0,1-6.09,1.85.76.76,0,0,0,.2.17,11.57,11.57,0,0,0,11.41.48c4.55-2.26,6.6-6.2,6.81-11.17a1,1,0,0,1,.39-.84,7,7,0,0,0,1.61-1.77L21,7.2c1.59-1.7,1.64-1.76,1.71-2.27-.74.26-1.5.55-2.27.79a.67.67,0,0,1-.51-.12A4.17,4.17,0,0,0,15,4.93a4.3,4.3,0,0,0-2.25,4.42c0,.13,0,.26,0,.41A12.19,12.19,0,0,1,4,5.23,4.5,4.5,0,0,0,5.29,11l-.06.09Z"/></svg>